<svg width="18" height="19" viewBox="0 0 18 19" fill="none" xmlns="http://www.w3.org/2000/svg">
    <path
        d="M9 8.75C8.55 8.75 8.25 9.05 8.25 9.5C8.25 9.95 8.55 10.25 9 10.25C9.45 10.25 9.75 9.95 9.75 9.5C9.75 9.05 9.45 8.75 9 8.75ZM9 2.75C5.25 2.75 2.25 5.75 2.25 9.5C2.25 13.25 5.25 16.25 9 16.25C12.75 16.25 15.75 13.25 15.75 9.5C15.75 5.75 12.75 2.75 9 2.75ZM9 14.75C6.075 14.75 3.75 12.425 3.75 9.5C3.75 6.575 6.075 4.25 9 4.25C11.925 4.25 14.25 6.575 14.25 9.5C14.25 12.425 11.925 14.75 9 14.75ZM9 5.75C6.9 5.75 5.25 7.4 5.25 9.5C5.25 11.6 6.9 13.25 9 13.25C11.1 13.25 12.75 11.6 12.75 9.5C12.75 7.4 11.1 5.75 9 5.75ZM9 11.75C7.725 11.75 6.75 10.775 6.75 9.5C6.75 8.225 7.725 7.25 9 7.25C10.275 7.25 11.25 8.225 11.25 9.5C11.25 10.775 10.275 11.75 9 11.75Z"
        fill="white" />
</svg>