<svg width="18" height="18" viewBox="0 0 18 18" fill="none" xmlns="http://www.w3.org/2000/svg">
<path d="M9 1.5C4.875 1.5 1.5 4.875 1.5 9C1.5 13.125 4.875 16.5 9 16.5C13.125 16.5 16.5 13.125 16.5 9C16.5 4.875 13.125 1.5 9 1.5ZM11.775 9.525L9.525 11.775C9.225 12.075 8.775 12.075 8.475 11.775C8.175 11.475 8.175 11.025 8.475 10.725L9.45 9.75H6.75C6.3 9.75 6 9.45 6 9C6 8.55 6.3 8.25 6.75 8.25H9.45L8.475 7.275C8.175 6.975 8.175 6.525 8.475 6.225C8.775 5.925 9.225 5.925 9.525 6.225L11.775 8.475C12.075 8.775 12.075 9.225 11.775 9.525Z" fill="white"/>
</svg>
