<svg width="20" height="20" viewBox="0 0 20 20" fill="none" xmlns="http://www.w3.org/2000/svg">
<path d="M1.31748 8.89947C6.46345 6.66522 9.89405 5.19212 11.6094 4.48044C16.5127 2.44823 17.5302 2.09528 18.1949 2.08346C18.341 2.08099 18.6664 2.117 18.8788 2.28825C19.0553 2.43256 19.105 2.62773 19.1298 2.76462C19.1518 2.90151 19.1822 3.21351 19.1574 3.45705C18.8926 6.23887 17.7427 12.9895 17.158 16.1053C16.9126 17.4237 16.4244 17.8657 15.9528 17.9088C14.927 18.0028 14.1492 17.2337 13.1564 16.5852C11.6038 15.5701 10.7269 14.9384 9.21842 13.948C7.47552 12.8034 8.60617 12.1742 9.59896 11.1461C9.85819 10.877 14.3754 6.78259 14.4608 6.41122C14.4719 6.36477 14.483 6.19159 14.3782 6.10033C14.2761 6.0088 14.1244 6.04013 14.0141 6.06487C13.8569 6.10006 11.3776 7.73506 6.56812 10.9696C5.8649 11.4518 5.22787 11.6868 4.65426 11.6744C4.02549 11.6609 2.81216 11.3193 1.91037 11.0273C0.807272 10.6692 -0.0724949 10.4798 0.0047222 9.87146C0.0433308 9.55479 0.481884 9.2307 1.31748 8.89947Z" fill="white"/>
</svg>
