<svg width="18" height="19" viewBox="0 0 18 19" fill="none" xmlns="http://www.w3.org/2000/svg">
<path d="M14.25 6.5H10.875L11.85 2.975C11.85 2.9 11.85 2.825 11.85 2.75C11.85 2.3 11.55 2 11.1 2H5.85C5.475 2 5.25 2.225 5.1 2.525L3.075 10.025C3.075 10.1 3.075 10.175 3.075 10.25C3.075 10.7 3.375 11 3.825 11H6.675L5.325 16.025C5.325 16.1 5.325 16.175 5.325 16.25C5.325 16.7 5.625 17 6.075 17C6.3 17 6.525 16.925 6.6 16.775L14.775 7.775C14.925 7.625 15 7.4 15 7.25C15 6.8 14.625 6.5 14.25 6.5Z" fill="#1B2F31"/>
</svg>
