<svg width="108" height="75" viewBox="0 0 108 75" fill="none" xmlns="http://www.w3.org/2000/svg">
<g filter="url(#filter0_i_4002_13666)">
<path d="M54 0L57.5222 8.07897C58.8813 11.1964 62.8887 12.0767 65.4293 9.81609L73.5906 2.55404L72.8816 9.18575C72.4781 12.9601 76.2622 15.7899 79.7685 14.3359L90.5354 9.8712L87.4466 14.3996C85.0304 17.942 87.9017 22.6831 92.1604 22.1829L102.546 20.9633L97.8661 24.0478C94.0244 26.58 95.3535 32.5189 99.9081 33.1719L108 34.3322L101.2 36.2681C96.7145 37.5452 96.2658 43.7259 100.52 45.6377L106.161 48.1725L96.7997 48.2898C92.3251 48.3459 90.1718 53.8012 93.4018 56.8984L97.2775 60.6148L86.3565 57.8206C82.4307 56.8161 79.0033 60.6539 80.4436 64.4416L82.5491 69.9789L72.7198 63.9516C69.6824 62.0891 65.7272 63.9106 65.168 67.4294L63.965 75L58.0069 67.0179C56.0073 64.339 51.9928 64.339 49.9932 67.0179L44.035 75L42.832 67.4294C42.2728 63.9106 38.3176 62.0891 35.2802 63.9516L25.4509 69.9789L27.5564 64.4416C28.9967 60.6539 25.5693 56.8161 21.6435 57.8206L10.7225 60.6148L14.5982 56.8984C17.8282 53.8012 15.6749 48.3459 11.2003 48.2898L1.83891 48.1725L7.47985 45.6377C11.7342 43.7259 11.2855 37.5452 6.79954 36.2681L0 34.3322L8.09192 33.1719C12.6465 32.5189 13.9756 26.58 10.1339 24.0478L5.45409 20.9633L15.8396 22.1829C20.0983 22.6831 22.9696 17.942 20.5534 14.3996L17.4646 9.8712L28.2315 14.3359C31.7379 15.7899 35.5219 12.9601 35.1184 9.18576L34.4094 2.55404L42.5707 9.81608C45.1113 12.0767 49.1187 11.1964 50.4778 8.07897L54 0Z" fill="#EA443B"/>
</g>
<path d="M50.9361 8.2788L54 1.25112L57.0639 8.2788C58.5589 11.7079 62.967 12.6763 65.7617 10.1896L72.9558 3.78817L72.3844 9.1326C71.9406 13.2844 76.103 16.3972 79.96 14.7978L89.1767 10.9759L87.0336 14.1179C84.3757 18.0145 87.5341 23.2297 92.2187 22.6795L100.511 21.7057L97.591 23.6303C93.365 26.4157 94.8271 32.9485 99.8371 33.6669L105.606 34.494L101.064 35.7872C96.129 37.192 95.6354 43.9908 100.315 46.0937L103.892 47.7009L96.7934 47.7899C91.8714 47.8516 89.5028 53.8524 93.0557 57.2593L95.5581 59.6588L86.4804 57.3362C82.1621 56.2312 78.3919 60.4529 79.9762 64.6193L81.5607 68.7863L72.9811 63.5253C69.64 61.4766 65.2893 63.4802 64.6742 67.3509L63.6571 73.7516L58.4075 66.7188C56.208 63.772 51.792 63.772 49.5925 66.7188L44.3429 73.7516L43.3258 67.3509C42.7107 63.4802 38.36 61.4766 35.0189 63.5253L26.4393 68.7863L28.0238 64.6193C29.6081 60.4529 25.8379 56.2312 21.5196 57.3362L12.4419 59.6588L14.9443 57.2593C18.4972 53.8524 16.1286 47.8516 11.2066 47.7899L4.10824 47.7009L7.68479 46.0937C12.3646 43.9908 11.871 37.192 6.93645 35.7872L2.39432 34.494L8.16288 33.6669C13.1729 32.9485 14.635 26.4157 10.409 23.6303L7.48901 21.7057L15.7813 22.6795C20.4659 23.2297 23.6243 18.0145 20.9664 14.1179L18.8234 10.9759L28.04 14.7978C31.897 16.3972 36.0594 13.2844 35.6156 9.1326L35.0442 3.78817L42.2383 10.1896C45.033 12.6763 49.4411 11.7079 50.9361 8.2788Z" stroke="black"/>
<defs>
<filter id="filter0_i_4002_13666" x="0" y="0" width="108" height="75" filterUnits="userSpaceOnUse" color-interpolation-filters="sRGB">
<feFlood flood-opacity="0" result="BackgroundImageFix"/>
<feBlend mode="normal" in="SourceGraphic" in2="BackgroundImageFix" result="shape"/>
<feColorMatrix in="SourceAlpha" type="matrix" values="0 0 0 0 0 0 0 0 0 0 0 0 0 0 0 0 0 0 127 0" result="hardAlpha"/>
<feOffset dy="2"/>
<feComposite in2="hardAlpha" operator="arithmetic" k2="-1" k3="1"/>
<feColorMatrix type="matrix" values="0 0 0 0 0.917647 0 0 0 0 0.266667 0 0 0 0 0.231373 0 0 0 1 0"/>
<feBlend mode="normal" in2="shape" result="effect1_innerShadow_4002_13666"/>
</filter>
</defs>
</svg>
