<svg width="48" height="49" viewBox="0 0 48 49" fill="none" xmlns="http://www.w3.org/2000/svg">
<g filter="url(#filter0_d_4022_11273)">
<path d="M10.274 28.2283H4.39998C1.97999 28.2283 0 30.2276 0 32.6712V43.7785C0 45.0003 0.989996 46 2.19999 46H10.274C11.484 46 12.474 45.0003 12.474 43.7785V30.4497C12.474 29.2279 11.484 28.2283 10.274 28.2283Z" fill="#FAB757"/>
<path d="M24.9263 19.3424H19.0524C16.6323 19.3424 14.6523 21.3417 14.6523 23.7853V43.7785C14.6523 45.0003 15.6423 46 16.8523 46H27.1263C28.3363 46 29.3263 45.0003 29.3263 43.7785V23.7853C29.3263 21.3417 27.3683 19.3424 24.9263 19.3424Z" fill="#FAB757"/>
<path d="M39.6 34.8927H33.726C32.516 34.8927 31.526 35.8923 31.526 37.1141V43.7785C31.526 45.0003 32.516 46 33.726 46H41.8C43.01 46 44 45.0003 44 43.7785V39.3356C44 36.892 42.02 34.8927 39.6 34.8927Z" fill="#FAB757"/>
<path d="M28.6208 7.90287C29.3028 7.21422 29.5668 6.39227 29.3468 5.6814C29.1268 4.97053 28.4448 4.4596 27.4768 4.30409L25.3648 3.94866C25.2768 3.94866 25.0788 3.79316 25.0348 3.7043L23.8688 1.34954C22.9888 -0.449847 20.9868 -0.449847 20.1068 1.34954L18.9408 3.7043C18.9188 3.79316 18.7208 3.94866 18.6328 3.94866L16.5207 4.30409C15.5527 4.4596 14.8927 4.97053 14.6507 5.6814C14.4307 6.39227 14.6947 7.21422 15.3767 7.90287L17.0047 9.56897C17.0927 9.63561 17.1587 9.90219 17.1367 9.99105L16.6747 12.0348C16.3227 13.5676 16.8947 14.2563 17.2687 14.5228C17.6428 14.7894 18.4568 15.1449 19.7988 14.3451L21.7788 13.1677C21.8668 13.1011 22.1528 13.1011 22.2408 13.1677L24.1988 14.3451C24.8148 14.7228 25.3208 14.8338 25.7168 14.8338C26.1788 14.8338 26.5088 14.6561 26.7068 14.5228C27.0808 14.2563 27.6528 13.5676 27.3008 12.0348L26.8388 9.99105C26.8168 9.87998 26.8828 9.63561 26.9708 9.56897L28.6208 7.90287Z" fill="#FAB757"/>
</g>
<defs>
<filter id="filter0_d_4022_11273" x="0" y="0" width="48" height="49" filterUnits="userSpaceOnUse" color-interpolation-filters="sRGB">
<feFlood flood-opacity="0" result="BackgroundImageFix"/>
<feColorMatrix in="SourceAlpha" type="matrix" values="0 0 0 0 0 0 0 0 0 0 0 0 0 0 0 0 0 0 127 0" result="hardAlpha"/>
<feOffset dx="4" dy="3"/>
<feComposite in2="hardAlpha" operator="out"/>
<feColorMatrix type="matrix" values="0 0 0 0 0 0 0 0 0 0 0 0 0 0 0 0 0 0 1 0"/>
<feBlend mode="normal" in2="BackgroundImageFix" result="effect1_dropShadow_4022_11273"/>
<feBlend mode="normal" in="SourceGraphic" in2="effect1_dropShadow_4022_11273" result="shape"/>
</filter>
</defs>
</svg>
