<svg width="19" height="19" viewBox="0 0 19 19" fill="none" xmlns="http://www.w3.org/2000/svg">
<path d="M8 11.75H5.75C4.475 11.75 3.5 10.775 3.5 9.5C3.5 8.225 4.475 7.25 5.75 7.25H8C8.45 7.25 8.75 6.95 8.75 6.5C8.75 6.05 8.45 5.75 8 5.75H5.75C3.65 5.75 2 7.4 2 9.5C2 11.6 3.65 13.25 5.75 13.25H8C8.45 13.25 8.75 12.95 8.75 12.5C8.75 12.05 8.45 11.75 8 11.75ZM13.25 5.75H11C10.55 5.75 10.25 6.05 10.25 6.5C10.25 6.95 10.55 7.25 11 7.25H13.25C14.525 7.25 15.5 8.225 15.5 9.5C15.5 10.775 14.525 11.75 13.25 11.75H11C10.55 11.75 10.25 12.05 10.25 12.5C10.25 12.95 10.55 13.25 11 13.25H13.25C15.35 13.25 17 11.6 17 9.5C17 7.4 15.35 5.75 13.25 5.75ZM6.5 9.5C6.5 9.95 6.8 10.25 7.25 10.25H11.75C12.2 10.25 12.5 9.95 12.5 9.5C12.5 9.05 12.2 8.75 11.75 8.75H7.25C6.8 8.75 6.5 9.05 6.5 9.5Z" fill="white"/>
</svg>
