<svg width="82" height="82" viewBox="0 0 82 82" fill="none" xmlns="http://www.w3.org/2000/svg">
<g filter="url(#filter0_d_4022_11284)">
<path d="M22.2083 47.8333C22.2083 32.5056 34.0825 19.9514 49.134 18.8676C44.7469 13.6016 38.1398 10.25 30.7499 10.25C17.5411 10.25 6.83325 20.9579 6.83325 34.1667C6.83325 44.9191 13.9288 54.0142 23.693 57.0252C22.7298 54.1364 22.2083 51.0458 22.2083 47.8333Z" fill="#FAB757"/>
<path fill-rule="evenodd" clip-rule="evenodd" d="M51.2499 71.75C64.4587 71.75 75.1666 61.0421 75.1666 47.8333C75.1666 34.6245 64.4587 23.9167 51.2499 23.9167C38.0411 23.9167 27.3333 34.6245 27.3333 47.8333C27.3333 61.0421 38.0411 71.75 51.2499 71.75ZM53.8124 37.5833H48.6874V45.2708H40.9999V50.3958H48.6874V58.0833H53.8124V50.3958H61.4999V45.2708H53.8124V37.5833Z" fill="#FAB757"/>
<path d="M49.2158 20.0035L51.4299 19.8441L50.009 18.1386C45.4148 12.624 38.4921 9.11111 30.7499 9.11111C16.9121 9.11111 5.69436 20.3289 5.69436 34.1667C5.69436 45.4328 13.1292 54.9595 23.3574 58.1135L25.4739 58.7662L24.7734 56.6649C23.8485 53.8909 23.3471 50.9218 23.3471 47.8333C23.3471 33.1072 34.7557 21.0447 49.2158 20.0035ZM48.6874 46.4097H49.8263V45.2708V38.7222H52.6735V45.2708V46.4097H53.8124H60.361V49.2569H53.8124H52.6735V50.3958V56.9444H49.8263V50.3958V49.2569H48.6874H42.1388V46.4097H48.6874ZM51.2499 72.8889C65.0877 72.8889 76.3055 61.6711 76.3055 47.8333C76.3055 33.9955 65.0877 22.7778 51.2499 22.7778C37.4121 22.7778 26.1944 33.9955 26.1944 47.8333C26.1944 61.6711 37.4121 72.8889 51.2499 72.8889Z" stroke="#2F1E04" stroke-width="2.27778"/>
</g>
<defs>
<filter id="filter0_d_4022_11284" x="4.55542" y="7.97223" width="76.7937" height="68.6587" filterUnits="userSpaceOnUse" color-interpolation-filters="sRGB">
<feFlood flood-opacity="0" result="BackgroundImageFix"/>
<feColorMatrix in="SourceAlpha" type="matrix" values="0 0 0 0 0 0 0 0 0 0 0 0 0 0 0 0 0 0 127 0" result="hardAlpha"/>
<feOffset dx="3.90476" dy="2.60317"/>
<feComposite in2="hardAlpha" operator="out"/>
<feColorMatrix type="matrix" values="0 0 0 0 0.185758 0 0 0 0 0.116697 0 0 0 0 0.0166771 0 0 0 1 0"/>
<feBlend mode="normal" in2="BackgroundImageFix" result="effect1_dropShadow_4022_11284"/>
<feBlend mode="normal" in="SourceGraphic" in2="effect1_dropShadow_4022_11284" result="shape"/>
</filter>
</defs>
</svg>
