<svg width="18" height="17" viewBox="0 0 18 17" fill="none" xmlns="http://www.w3.org/2000/svg">
<path fill-rule="evenodd" clip-rule="evenodd" d="M2.62564 4.60417C2.62564 3.23496 3.7356 2.125 5.10481 2.125H12.5423V5.66667H15.3756V14.875H9.00008V9.75895L4.75008 7.27979L2.62548 8.51914C2.62557 6.87058 2.62564 5.34933 2.62564 4.60417ZM4.04231 4.60417C4.04231 5.19097 4.51801 5.66667 5.10481 5.66667H11.1256V3.54167H5.10481C4.51801 3.54167 4.04231 4.01736 4.04231 4.60417ZM11.4792 11.1563C11.9683 11.1563 12.3647 10.7598 12.3647 10.2708C12.3647 9.78183 11.9683 9.38542 11.4792 9.38542C10.9902 9.38542 10.5938 9.78183 10.5938 10.2708C10.5938 10.7598 10.9902 11.1563 11.4792 11.1563Z" fill="white"/>
<path fill-rule="evenodd" clip-rule="evenodd" d="M4.75008 8.91954L7.58342 10.5723V13.8652L4.75008 15.518L1.91675 13.8652V10.5723L4.75008 8.91954ZM3.33341 11.386V13.0515L4.75008 13.8779L6.16675 13.0515V11.386L4.75008 10.5596L3.33341 11.386Z" fill="white"/>
</svg>
