<svg width="19" height="19" viewBox="0 0 19 19" fill="none" xmlns="http://www.w3.org/2000/svg">
    <path
        d="M15.95 14H14.45V11.75C14.45 11.3 14.15 11 13.7 11H9.95V8.975L10.775 9.425C11.15 9.65 11.6 9.5 11.75 9.125C11.825 8.975 11.825 8.825 11.825 8.675L11.525 6.875L12.8 5.6C13.025 5.375 13.1 5.15 13.025 4.85C12.95 4.55 12.725 4.4 12.425 4.325L10.7 4.025L9.875 2.375C9.725 2 9.275 1.85 8.9 2C8.75 2.075 8.6 2.225 8.525 2.375L7.7 4.025L5.9 4.325C5.6 4.325 5.375 4.55 5.3 4.85C5.225 5.15 5.3 5.375 5.525 5.6L6.875 6.875L6.575 8.675C6.5 9.05 6.8 9.5 7.175 9.575C7.325 9.575 7.475 9.575 7.625 9.5L8.45 9.05V11H4.7C4.25 11 3.95 11.3 3.95 11.75V14H2.45C2 14 1.7 14.3 1.7 14.75V16.25C1.7 16.7 2 17 2.45 17C2.9 17 3.2 16.7 3.2 16.25V15.5H6.2V16.25C6.2 16.7 6.5 17 6.95 17C7.4 17 7.7 16.7 7.7 16.25V14.75C7.7 14.3 7.4 14 6.95 14H5.45V12.5H12.95V14H11.45C11 14 10.7 14.3 10.7 14.75V16.25C10.7 16.7 11 17 11.45 17C11.9 17 12.2 16.7 12.2 16.25V15.5H15.2V16.25C15.2 16.7 15.5 17 15.95 17C16.4 17 16.7 16.7 16.7 16.25V14.75C16.7 14.3 16.4 14 15.95 14Z"
        fill="white" fill-opacity="0.52" />
</svg>