<svg width="18" height="19" viewBox="0 0 18 19" fill="none" xmlns="http://www.w3.org/2000/svg">
<path d="M10.875 8C10.875 8.45 11.175 8.75 11.625 8.75C12.075 8.75 12.375 8.45 12.375 8C12.375 7.55 12.075 7.25 11.625 7.25C11.175 7.25 10.875 7.55 10.875 8ZM16.35 8H13.875C13.875 9.275 12.9 10.25 11.625 10.25C10.425 10.25 9.45001 9.35 9.37501 8.15C9.15001 8 8.85001 8 8.62501 8.15C8.55001 9.425 7.50001 10.325 6.22501 10.25C5.02501 10.175 4.12501 9.2 4.12501 8H1.65001C0.82501 12.05 3.45001 16.025 7.50001 16.85C11.55 17.675 15.525 15.05 16.35 11C16.575 10.025 16.575 8.975 16.35 8ZM11.7 12.35C10.125 13.7 7.80001 13.7 6.22501 12.35C5.92501 12.05 5.85001 11.6 6.15001 11.3C6.45001 11 6.90001 10.925 7.20001 11.225C8.25001 12.05 9.67501 12.05 10.725 11.225C11.025 10.925 11.55 11 11.775 11.3C12 11.6 12.075 12.05 11.7 12.35ZM6.37501 5.75C7.12501 5.75 7.72501 6.125 8.17501 6.65C8.70001 6.425 9.30001 6.425 9.82501 6.65C10.575 5.675 11.925 5.45 12.9 6.125C13.05 6.2 13.125 6.35 13.275 6.425H15.825C14.25 2.675 9.82501 0.949999 6.00001 2.6C4.27501 3.35 2.85001 4.775 2.10001 6.5H4.65001C5.10001 6.05 5.77501 5.75 6.37501 5.75ZM5.62501 8C5.62501 8.45 5.92501 8.75 6.37501 8.75C6.82501 8.75 7.12501 8.45 7.12501 8C7.12501 7.55 6.82501 7.25 6.37501 7.25C5.92501 7.25 5.62501 7.55 5.62501 8Z" fill="white"/>
</svg>
