<svg width="19" height="19" viewBox="0 0 19 19" fill="none" xmlns="http://www.w3.org/2000/svg">
<path d="M7.17502 14.75C6.57502 14.75 6.05002 15.275 6.05002 15.875C6.05002 16.475 6.57502 17 7.17502 17C7.77502 17 8.30002 16.475 8.30002 15.875C8.30002 15.275 7.77502 14.75 7.17502 14.75ZM15.05 12.5H6.05002C5.60002 12.5 5.30002 12.2 5.30002 11.75C5.30002 11.3 5.60002 11 6.05002 11H12.425C13.4 11 14.3 10.325 14.6 9.35L15.8 5.225C15.95 4.85 15.65 4.4 15.275 4.325C15.2 4.325 15.125 4.325 15.05 4.325H5.82502C5.52502 3.35 4.70002 2.75 3.72502 2.75H3.05002C2.60002 2.75 2.30002 3.05 2.30002 3.5C2.30002 3.95 2.60002 4.25 3.05002 4.25H3.72502C4.02502 4.25 4.32502 4.475 4.47502 4.775L4.55002 5.225L5.82502 9.5C4.55002 9.65 3.65002 10.775 3.80002 11.975C3.95002 13.1 4.92502 14 6.05002 14H15.05C15.5 14 15.8 13.7 15.8 13.25C15.8 12.8 15.5 12.5 15.05 12.5ZM13.175 14.75C12.575 14.75 12.05 15.275 12.05 15.875C12.05 16.475 12.575 17 13.175 17C13.775 17 14.3 16.475 14.3 15.875C14.3 15.275 13.775 14.75 13.175 14.75Z" fill="white" fill-opacity="0.52"/>
</svg>
