<svg width="62" height="74" viewBox="0 0 62 74" fill="none" xmlns="http://www.w3.org/2000/svg">
<g filter="url(#filter0_d_4123_1097)">
<path fill-rule="evenodd" clip-rule="evenodd" d="M5 31.3701C5 32.2521 5.76209 32.9409 6.63959 32.8521C7.03382 32.8122 7.4277 32.931 7.7341 33.1823L18.9093 42.3457C19.9555 43.2036 19.3489 44.9 17.996 44.9C17.2005 44.9 16.5556 45.5449 16.5556 46.3404V60C16.5556 61.1046 17.451 62 18.5556 62H43.4445C44.549 62 45.4444 61.1046 45.4444 60V46.3405C45.4444 45.5449 44.7995 44.9 44.004 44.9C42.651 44.9 42.0444 43.2035 43.0907 42.3457L54.266 33.1822C54.5724 32.931 54.9663 32.8122 55.3605 32.8521C56.2379 32.9409 57 32.2521 57 31.3702V30.65C57 16.4839 45.3595 5 31 5C16.6406 5 5 16.4839 5 30.65V31.3701ZM15.7541 32.0462C14.883 32.1132 14.5418 33.2056 15.2173 33.7595L28.7975 44.895C28.8014 44.8982 28.8063 44.9 28.8114 44.9C28.8235 44.9 28.8333 44.8902 28.8333 44.8781V33.3835C28.8333 32.2628 27.9125 31.36 26.7924 31.399C23.1353 31.5261 19.1634 31.7848 15.7541 32.0462ZM46.2458 32.0462C47.1169 32.1132 47.4582 33.2056 46.7826 33.7596L33.2025 44.895C33.1986 44.8982 33.1937 44.9 33.1886 44.9C33.1765 44.9 33.1667 44.8902 33.1667 44.8781V33.3835C33.1667 32.2628 34.0875 31.36 35.2076 31.399C38.8647 31.5261 42.8364 31.7848 46.2458 32.0462Z" fill="#FAB757"/>
<path d="M2.65 31.3701C2.65 33.5167 4.40134 35.2195 6.50083 35.21L16.0832 43.0673C14.9599 43.7252 14.2056 44.9447 14.2056 46.3404V60C14.2056 62.4024 16.1531 64.35 18.5556 64.35H43.4445C45.8469 64.35 47.7944 62.4024 47.7944 60V46.3405C47.7944 44.9447 47.0401 43.7252 45.9168 43.0673L55.4993 35.21C57.5987 35.2195 59.35 33.5167 59.35 31.3702V30.65C59.35 15.1561 46.6273 2.65 31 2.65C15.3729 2.65 2.65 15.1561 2.65 30.65V31.3701ZM6.24404 34.9995L6.245 35.0003L6.24404 34.9995ZM26.4833 33.7616V39.9584L19.3888 34.141C21.7226 33.9851 24.1628 33.8477 26.4833 33.7616ZM35.5167 33.7616C37.8372 33.8477 40.2774 33.9851 42.6112 34.141L35.5167 39.9584V33.7616Z" stroke="black" stroke-width="4.7"/>
</g>
<defs>
<filter id="filter0_d_4123_1097" x="0.300003" y="0.300049" width="61.4" height="73.3999" filterUnits="userSpaceOnUse" color-interpolation-filters="sRGB">
<feFlood flood-opacity="0" result="BackgroundImageFix"/>
<feColorMatrix in="SourceAlpha" type="matrix" values="0 0 0 0 0 0 0 0 0 0 0 0 0 0 0 0 0 0 127 0" result="hardAlpha"/>
<feOffset dy="7"/>
<feComposite in2="hardAlpha" operator="out"/>
<feColorMatrix type="matrix" values="0 0 0 0 0 0 0 0 0 0 0 0 0 0 0 0 0 0 1 0"/>
<feBlend mode="normal" in2="BackgroundImageFix" result="effect1_dropShadow_4123_1097"/>
<feBlend mode="normal" in="SourceGraphic" in2="effect1_dropShadow_4123_1097" result="shape"/>
</filter>
</defs>
</svg>
