<svg width="18" height="19" viewBox="0 0 18 19" fill="none" xmlns="http://www.w3.org/2000/svg">
<path d="M9 2C4.875 2 1.5 5.375 1.5 9.5C1.5 13.625 4.875 17 9 17C13.125 17 16.5 13.625 16.5 9.5C16.5 5.375 13.125 2 9 2ZM12 10.25H9.75V12.5C9.75 12.95 9.45 13.25 9 13.25C8.55 13.25 8.25 12.95 8.25 12.5V10.25H6C5.55 10.25 5.25 9.95 5.25 9.5C5.25 9.05 5.55 8.75 6 8.75H8.25V6.5C8.25 6.05 8.55 5.75 9 5.75C9.45 5.75 9.75 6.05 9.75 6.5V8.75H12C12.45 8.75 12.75 9.05 12.75 9.5C12.75 9.95 12.45 10.25 12 10.25Z" fill="white"/>
</svg>
