<svg width="16" height="17" viewBox="0 0 16 17" fill="none" xmlns="http://www.w3.org/2000/svg">
<path d="M4.00004 9.83333C4.00004 6.75434 6.31926 4.21704 9.30606 3.87304C8.46108 3.02489 7.29186 2.5 6.00004 2.5C3.42271 2.5 1.33337 4.58934 1.33337 7.16667C1.33337 9.1177 2.53066 10.7891 4.23059 11.4862C4.08044 10.9611 4.00004 10.4066 4.00004 9.83333Z" fill="white"/>
<path fill-rule="evenodd" clip-rule="evenodd" d="M10 14.5C12.5774 14.5 14.6667 12.4107 14.6667 9.83333C14.6667 7.256 12.5774 5.16667 10 5.16667C7.42271 5.16667 5.33337 7.256 5.33337 9.83333C5.33337 12.4107 7.42271 14.5 10 14.5ZM10.6667 7.83333H9.33337V9.16667H8.00004V10.5H9.33337V11.8333H10.6667V10.5H12V9.16667H10.6667V7.83333Z" fill="white"/>
</svg>
