<svg width="55" height="71" viewBox="0 0 55 71" fill="none" xmlns="http://www.w3.org/2000/svg">
<g filter="url(#filter0_d_4123_785)">
<path d="M49.6875 23.0451H33.125V3.21975C33.125 2.22848 32.4625 1.23721 31.8 0.576367C30.475 -0.414901 28.1562 -0.084478 27.1625 1.23721L0.662499 37.5837C0.331249 38.2445 0 38.9054 0 39.5662C0 41.5487 1.325 42.8704 3.3125 42.8704H19.875V62.6958C19.875 64.6783 21.2 66 23.1875 66C24.1812 66 25.175 65.3392 25.8375 64.6783L52.3375 28.3318C52.6687 27.671 53 27.0102 53 26.3493C53 24.3668 51.675 23.0451 49.6875 23.0451Z" fill="#FAB757"/>
<path d="M31.7639 23.0451V24.4062H33.125H49.6875C50.373 24.4062 50.838 24.6283 51.1278 24.9174C51.4174 25.2062 51.6389 25.6684 51.6389 26.3493C51.6389 26.6127 51.5049 26.9491 51.1706 27.622L24.8048 63.7844C24.2482 64.3154 23.6208 64.6389 23.1875 64.6389C22.502 64.6389 22.037 64.4168 21.7472 64.1277C21.4576 63.8389 21.2361 63.3767 21.2361 62.6958V42.8704V41.5093H19.875H3.3125C2.62704 41.5093 2.16204 41.2873 1.87218 40.9981C1.58262 40.7093 1.36111 40.2471 1.36111 39.5662C1.36111 39.3028 1.49506 38.9664 1.82943 38.2935L28.2553 2.04877C28.4877 1.74436 28.9502 1.47226 29.5491 1.38693C30.109 1.30713 30.601 1.41736 30.9154 1.61838C31.4442 2.1723 31.7639 2.79316 31.7639 3.21975V23.0451Z" stroke="black" stroke-width="2.72222"/>
</g>
<defs>
<filter id="filter0_d_4123_785" x="0" y="0" width="54.1746" height="70.6984" filterUnits="userSpaceOnUse" color-interpolation-filters="sRGB">
<feFlood flood-opacity="0" result="BackgroundImageFix"/>
<feColorMatrix in="SourceAlpha" type="matrix" values="0 0 0 0 0 0 0 0 0 0 0 0 0 0 0 0 0 0 127 0" result="hardAlpha"/>
<feOffset dx="1.1746" dy="4.69841"/>
<feComposite in2="hardAlpha" operator="out"/>
<feColorMatrix type="matrix" values="0 0 0 0 0 0 0 0 0 0 0 0 0 0 0 0 0 0 1 0"/>
<feBlend mode="normal" in2="BackgroundImageFix" result="effect1_dropShadow_4123_785"/>
<feBlend mode="normal" in="SourceGraphic" in2="effect1_dropShadow_4123_785" result="shape"/>
</filter>
</defs>
</svg>
