<svg width="48" height="41" viewBox="0 0 48 41" fill="none" xmlns="http://www.w3.org/2000/svg">
<g filter="url(#filter0_d_4022_10533)">
<path d="M43.0011 9.0707L38.3648 1.58398C37.9505 0.911914 37.2147 0.5 36.4289 0.5H7.56831C6.7825 0.5 6.0467 0.911914 5.63237 1.58398L0.996098 9.0707C-1.39704 12.9369 0.724638 18.3135 5.1966 18.9277C5.51807 18.9711 5.84668 18.9928 6.17529 18.9928C8.28983 18.9928 10.1615 18.0533 11.4473 16.6008C12.7332 18.0533 14.612 18.9928 16.7194 18.9928C18.8339 18.9928 20.7056 18.0533 21.9915 16.6008C23.2773 18.0533 25.1561 18.9928 27.2635 18.9928C29.3781 18.9928 31.2497 18.0533 32.5356 16.6008C33.8286 18.0533 35.7002 18.9928 37.8076 18.9928C38.1434 18.9928 38.4649 18.9711 38.7863 18.9277C43.2726 18.3207 45.4014 12.9441 43.0011 9.0707ZM37.8219 21.3125C37.1076 21.3125 36.4003 21.2041 35.7145 21.0379V28.25H8.28268V21.0379C7.59689 21.1969 6.88966 21.3125 6.17529 21.3125C5.74666 21.3125 5.3109 21.2836 4.88942 21.2258C4.48937 21.168 4.09647 21.074 3.71785 20.9656V35.1875C3.71785 36.4666 4.7394 37.5 6.00384 37.5H38.0077C39.2721 37.5 40.2936 36.4666 40.2936 35.1875V20.9656C39.9079 21.0813 39.5221 21.1752 39.1221 21.2258C38.6863 21.2836 38.2577 21.3125 37.8219 21.3125Z" fill="#569CAA"/>
</g>
<defs>
<filter id="filter0_d_4022_10533" x="0" y="0.5" width="48" height="40" filterUnits="userSpaceOnUse" color-interpolation-filters="sRGB">
<feFlood flood-opacity="0" result="BackgroundImageFix"/>
<feColorMatrix in="SourceAlpha" type="matrix" values="0 0 0 0 0 0 0 0 0 0 0 0 0 0 0 0 0 0 127 0" result="hardAlpha"/>
<feOffset dx="4" dy="3"/>
<feComposite in2="hardAlpha" operator="out"/>
<feColorMatrix type="matrix" values="0 0 0 0 0 0 0 0 0 0 0 0 0 0 0 0 0 0 1 0"/>
<feBlend mode="normal" in2="BackgroundImageFix" result="effect1_dropShadow_4022_10533"/>
<feBlend mode="normal" in="SourceGraphic" in2="effect1_dropShadow_4022_10533" result="shape"/>
</filter>
</defs>
</svg>
