<svg width="75" height="79" viewBox="0 0 75 79" fill="none" xmlns="http://www.w3.org/2000/svg">
<g filter="url(#filter0_d_4123_747)">
<path d="M36.0007 55.0989C36.3924 55.4772 36.7048 55.9297 36.9198 56.4301C37.1347 56.9304 37.2478 57.4686 37.2526 58.0131C37.2573 58.5577 37.1535 59.0977 36.9473 59.6017C36.7411 60.1058 36.4366 60.5637 36.0515 60.9487C35.6664 61.3338 35.2085 61.6383 34.7045 61.8445C34.2005 62.0507 33.6605 62.1545 33.1159 62.1498C32.5714 62.145 32.0332 62.0319 31.5329 61.817C31.0325 61.602 30.58 61.2896 30.2017 60.8979L24.4026 55.0989L12.8046 66.701C13.5736 67.4706 14.0054 68.5141 14.005 69.602C14.0046 70.6899 13.5721 71.7331 12.8026 72.5021C12.033 73.2711 10.9895 73.7029 9.9016 73.7025C8.81368 73.7021 7.77048 73.2696 7.00149 72.5L1.20247 66.701C0.432925 65.932 0.000384805 64.8888 2.5663e-07 63.8009C-0.000384292 62.713 0.431418 61.6695 1.20042 60.9C1.96941 60.1304 3.01261 59.6979 4.10053 59.6975C5.18844 59.6971 6.23194 60.1289 7.00149 60.8979L18.6036 49.2999L12.8046 43.5008C12.0575 42.7274 11.6442 41.6914 11.6535 40.6161C11.6629 39.5408 12.0942 38.5122 12.8546 37.7518C13.6149 36.9914 14.6436 36.5601 15.7189 36.5507C16.7942 36.5414 17.8301 36.9548 18.6036 37.7018L36.0007 55.0989ZM38.9043 52.1994L21.499 34.7982L56.3013 0L70.803 2.89951L73.7025 17.4012L38.9043 52.1994Z" fill="#EA443B"/>
<path d="M35.2936 55.806L35.2997 55.8121L35.306 55.8182C35.6022 56.1042 35.8384 56.4464 36.0009 56.8248C36.1635 57.2031 36.249 57.6101 36.2526 58.0218C36.2562 58.4336 36.1777 58.842 36.0218 59.2231C35.8659 59.6042 35.6356 59.9505 35.3444 60.2416C35.0532 60.5328 34.707 60.7631 34.3259 60.919C33.9447 61.0749 33.5364 61.1534 33.1246 61.1498C32.7128 61.1462 32.3059 61.0607 31.9276 60.8982L31.5329 61.817L31.9276 60.8982C31.5492 60.7356 31.207 60.4994 30.9209 60.2032L30.9149 60.1969L30.9088 60.1908L25.1097 54.3918L24.4025 53.6845L23.6954 54.3919L12.0974 65.994L11.3908 66.7009L12.0972 67.4079C12.6788 67.9898 13.0053 68.7789 13.005 69.6016C13.0047 70.4243 12.6776 71.2132 12.0957 71.7947C11.5138 72.3763 10.7246 72.7028 9.90195 72.7025C9.07925 72.7022 8.29037 72.3751 7.70884 71.7932L7.70859 71.7929L1.90957 65.9939L1.90932 65.9937C1.32738 65.4121 1.00029 64.6232 1 63.8006C0.999709 62.9779 1.32624 62.1887 1.90777 61.6068L1.20233 60.9019L1.90777 61.6068C2.4893 61.0249 3.27818 60.6978 4.10088 60.6975C4.92357 60.6972 5.71269 61.0237 6.29463 61.6053L7.00161 62.3117L7.70847 61.6051L19.3106 50.0071L20.018 49.3L19.3107 48.5928L13.5183 42.8003C12.9569 42.216 12.6464 41.4352 12.6535 40.6248C12.6605 39.8117 12.9867 39.0339 13.5617 38.4589C14.1366 37.8839 14.9145 37.5578 15.7276 37.5507C16.538 37.5437 17.3188 37.8541 17.9031 38.4155L35.2936 55.806ZM38.9042 50.7852L22.9134 34.7982L56.63 1.08551L69.9531 3.74938L72.617 17.0725L38.9042 50.7852Z" stroke="black" stroke-width="2"/>
</g>
<defs>
<filter id="filter0_d_4123_747" x="0" y="0" width="74.8771" height="78.4009" filterUnits="userSpaceOnUse" color-interpolation-filters="sRGB">
<feFlood flood-opacity="0" result="BackgroundImageFix"/>
<feColorMatrix in="SourceAlpha" type="matrix" values="0 0 0 0 0 0 0 0 0 0 0 0 0 0 0 0 0 0 127 0" result="hardAlpha"/>
<feOffset dx="1.1746" dy="4.69841"/>
<feComposite in2="hardAlpha" operator="out"/>
<feColorMatrix type="matrix" values="0 0 0 0 0 0 0 0 0 0 0 0 0 0 0 0 0 0 1 0"/>
<feBlend mode="normal" in2="BackgroundImageFix" result="effect1_dropShadow_4123_747"/>
<feBlend mode="normal" in="SourceGraphic" in2="effect1_dropShadow_4123_747" result="shape"/>
</filter>
</defs>
</svg>
